<svg width="28" height="12" viewBox="0 0 28 12" fill="none" xmlns="http://www.w3.org/2000/svg">
<path d="M8.288 8.928C8.36267 8.928 8.43033 8.95833 8.491 9.019L9.023 9.6C8.61233 10.076 8.113 10.447 7.525 10.713C6.94167 10.979 6.237 11.112 5.411 11.112C4.68767 11.112 4.032 10.9883 3.444 10.741C2.856 10.489 2.35433 10.139 1.939 9.691C1.52367 9.23833 1.20167 8.697 0.973 8.067C0.744333 7.437 0.63 6.744 0.63 5.988C0.63 5.232 0.751333 4.539 0.994 3.909C1.24133 3.279 1.58667 2.73767 2.03 2.285C2.47333 1.83233 3.003 1.48233 3.619 1.235C4.23967 0.982999 4.92333 0.856999 5.67 0.856999C6.40733 0.856999 7.042 0.971333 7.574 1.2C8.11067 1.42867 8.58667 1.739 9.002 2.131L8.561 2.754C8.52833 2.80067 8.491 2.84033 8.449 2.873C8.407 2.901 8.34633 2.915 8.267 2.915C8.20633 2.915 8.141 2.894 8.071 2.852C8.00567 2.80533 7.92633 2.74933 7.833 2.684C7.73967 2.61867 7.63 2.54867 7.504 2.474C7.378 2.39933 7.22867 2.32933 7.056 2.264C6.88333 2.19867 6.68267 2.145 6.454 2.103C6.22533 2.05633 5.96167 2.033 5.663 2.033C5.12633 2.033 4.634 2.12633 4.186 2.313C3.74267 2.495 3.36 2.75633 3.038 3.097C2.716 3.43767 2.464 3.853 2.282 4.343C2.10467 4.833 2.016 5.38133 2.016 5.988C2.016 6.61333 2.10467 7.171 2.282 7.661C2.464 8.151 2.709 8.56633 3.017 8.907C3.32967 9.243 3.69833 9.49967 4.123 9.677C4.54767 9.85433 5.005 9.943 5.495 9.943C5.79367 9.943 6.062 9.92667 6.3 9.894C6.538 9.85667 6.75733 9.80067 6.958 9.726C7.16333 9.65133 7.35233 9.558 7.525 9.446C7.70233 9.32933 7.87967 9.19167 8.057 9.033C8.13633 8.963 8.21333 8.928 8.288 8.928ZM19.055 11H18.005C17.8837 11 17.7857 10.9697 17.711 10.909C17.6363 10.8483 17.5803 10.7713 17.543 10.678L16.605 8.256H12.104L11.166 10.678C11.1333 10.762 11.0773 10.8367 10.998 10.902C10.9187 10.9673 10.8207 11 10.704 11H9.65398L13.665 0.968999H15.044L19.055 11ZM12.482 7.276H16.227L14.652 3.195C14.5493 2.943 14.449 2.628 14.351 2.25C14.2997 2.44133 14.2483 2.61867 14.197 2.782C14.1503 2.94067 14.1037 3.08067 14.057 3.202L12.482 7.276ZM21.8086 6.814V11H20.4576V0.968999H23.2926C23.9273 0.968999 24.4756 1.03433 24.9376 1.165C25.3996 1.291 25.7799 1.47533 26.0786 1.718C26.3819 1.96067 26.6059 2.25467 26.7506 2.6C26.8953 2.94067 26.9676 3.32333 26.9676 3.748C26.9676 4.10267 26.9116 4.434 26.7996 4.742C26.6876 5.05 26.5243 5.32767 26.3096 5.575C26.0996 5.81767 25.8406 6.02533 25.5326 6.198C25.2293 6.37067 24.8839 6.50133 24.4966 6.59C24.6646 6.688 24.8139 6.83033 24.9446 7.017L27.8706 11H26.6666C26.4193 11 26.2373 10.9043 26.1206 10.713L23.5166 7.129C23.4373 7.017 23.3509 6.93767 23.2576 6.891C23.1643 6.83967 23.0243 6.814 22.8376 6.814H21.8086ZM21.8086 5.827H23.2296C23.6263 5.827 23.9739 5.78033 24.2726 5.687C24.5759 5.589 24.8279 5.45367 25.0286 5.281C25.2339 5.10367 25.3879 4.89367 25.4906 4.651C25.5933 4.40833 25.6446 4.14 25.6446 3.846C25.6446 3.24867 25.4463 2.79833 25.0496 2.495C24.6576 2.19167 24.0719 2.04 23.2926 2.04H21.8086V5.827Z" fill="white"/>
</svg>
